<?xml version="1.0" encoding="UTF-8" standalone="no"?>
<!-- Generator: Adobe Illustrator 16.0.0, SVG Export Plug-In . SVG Version: 6.00 Build 0)  -->

<svg
   xmlns:dc="http://purl.org/dc/elements/1.1/"
   xmlns:cc="http://creativecommons.org/ns#"
   xmlns:rdf="http://www.w3.org/1999/02/22-rdf-syntax-ns#"
   xmlns:svg="http://www.w3.org/2000/svg"
   xmlns="http://www.w3.org/2000/svg"
   xmlns:sodipodi="http://sodipodi.sourceforge.net/DTD/sodipodi-0.dtd"
   xmlns:inkscape="http://www.inkscape.org/namespaces/inkscape"
   version="1.1"
   id="Layer_1"
   x="0px"
   y="0px"
   width="256"
   height="256"
   viewBox="0 0 255.99999 255.99999"
   enable-background="new 0 0 841.89 595.28"
   xml:space="preserve"
   inkscape:version="0.91 r13725"
   sodipodi:docname="ball_white.svg"><metadata
   id="metadata3391"><rdf:RDF><cc:Work
       rdf:about=""><dc:format>image/svg+xml</dc:format><dc:type
         rdf:resource="http://purl.org/dc/dcmitype/StillImage" /><dc:title></dc:title></cc:Work></rdf:RDF></metadata><defs
   id="defs3389" /><sodipodi:namedview
   pagecolor="#ffffff"
   bordercolor="#666666"
   borderopacity="1"
   objecttolerance="10"
   gridtolerance="10"
   guidetolerance="10"
   inkscape:pageopacity="0"
   inkscape:pageshadow="2"
   inkscape:window-width="1920"
   inkscape:window-height="1019"
   id="namedview3387"
   showgrid="false"
   inkscape:zoom="1.3825426"
   inkscape:cx="420.94501"
   inkscape:cy="297.64001"
   inkscape:window-x="-9"
   inkscape:window-y="-9"
   inkscape:window-maximized="1"
   inkscape:current-layer="Layer_1" />
<path
   id="path3375"
   d="m 129.31046,1.5387851 c -9.13896,0 -17.68852,4.4638935 -25.32219,12.2569639 -8.793336,0.56438 -17.219669,2.280203 -25.23446,5.076709 -4.752625,-2.762211 -9.103206,-4.371595 -12.849121,-4.371595 -2.18864,0 -4.1959,0.477136 -5.954515,1.42196 -4.880606,2.641934 -7.080351,8.305164 -6.75674,16.922361 -4.901593,3.812089 -9.360065,8.07839 -13.312968,12.80925 -5.177452,4.732425 -9.840028,9.91828 -14.077649,15.406419 -6.089043,-1.989287 -11.276315,-3.360946 -14.328346,-3.360946 -4.0114389,0 -5.9083682,1.717146 -6.8069305,3.161187 C 2.7691349,63.958382 2.7447454,67.740869 15.097282,77.75993 7.0258173,93.063882 2.3559888,110.15135 2.310804,128.25674 c -0.078946,30.4073 12.634043,58.08591 33.332555,78.94749 4.905187,14.2128 13.644217,25.07513 25.748429,31.62367 8.067806,4.37425 17.252397,6.59272 27.277786,6.59272 5.11834,0 10.37294,-0.62811 15.694736,-1.75103 7.53881,7.55173 15.95763,11.86918 24.94615,11.86918 9.13068,0 17.66868,-4.45397 25.29716,-12.2335 8.79584,-0.56257 17.22749,-2.27003 25.24697,-5.06492 4.75718,2.76612 9.12464,4.38333 12.87421,4.38333 2.18865,0 4.17691,-0.48315 5.94194,-1.43369 5.0609,-2.73815 6.93626,-8.78645 6.7192,-16.76959 4.93907,-3.84584 9.32116,-8.19909 13.25026,-12.91503 5.31653,-4.85 10.11467,-10.1616 14.44117,-15.806 6.09932,1.99652 11.28082,3.37274 14.32835,3.37274 4.02428,0 5.93404,-1.71768 6.80693,-3.13766 0.61616,-0.98676 1.21178,-2.62292 0.58921,-4.78296 -0.81025,-2.85241 -4.9444,-7.09206 -11.13178,-12.1394 7.96857,-15.22153 12.58937,-32.19033 12.63603,-50.16775 C 256.38331,98.280482 243.542,70.478652 222.62654,49.57952 217.81775,35.773159 209.3594,24.808732 197.24171,18.249655 c -8.06781,-4.368226 -17.23988,-6.580918 -27.26527,-6.580918 -5.11943,0 -10.3723,0.640011 -15.69475,1.762753 C 146.73596,5.8616438 138.30988,1.5387851 129.31046,1.5387851 Z m 0,9.0840439 c 2.04641,0 4.10116,0.475932 6.15509,1.175149 -2.05149,-0.09507 -4.10406,-0.148014 -6.18013,-0.152828 -2.04428,0 -4.08383,0.05415 -6.10495,0.140795 2.04313,-0.691696 4.09443,-1.163416 6.12999,-1.163416 z m 52.37437,11.610636 c 3.77095,0.891936 7.31539,2.238324 10.61774,4.030801 2.56725,1.389709 4.87823,3.09067 7.05762,4.935674 -5.58854,-3.41564 -11.51212,-6.383386 -17.67536,-8.966475 z m -71.04008,0.352587 c 5.2071,0 10.43026,0.465101 15.6321,1.30445 -7.85537,4.181884 -15.64827,9.368039 -23.21622,15.418152 -1.15433,-1.205053 -2.2835,-2.295966 -3.422306,-3.431524 2.795366,-5.190306 5.804266,-9.566474 8.925486,-13.232354 0.69523,-0.01805 1.38096,-0.06017 2.08094,-0.06017 z m -44.75264,1.034114 c 0.382531,0 0.853249,0.144404 1.278653,0.211792 -0.594976,0.305054 -1.203174,0.574007 -1.792631,0.89314 -0.644846,0.348977 -1.221852,0.777195 -1.855274,1.139891 0.378679,-1.126774 0.8614,-1.800058 1.29117,-2.033031 0.26315,-0.13237 0.622575,-0.211792 1.078082,-0.211792 z m 97.89169,1.845063 c 19.43784,5.507094 36.68246,15.560149 50.38117,28.767955 2.01034,6.258597 3.11667,13.230249 3.45986,20.659421 -13.58261,-20.358579 -32.02253,-36.76277 -52.60005,-47.441398 -0.40692,-0.673404 -0.82546,-1.335797 -1.24098,-1.985978 z m -68.971718,0.02407 c -0.768464,1.203368 -1.542768,2.396147 -2.281514,3.678275 -0.815253,-0.723165 -1.629799,-1.438386 -2.431895,-2.115281 1.574924,-0.516245 3.108384,-1.107278 4.713409,-1.562994 z m 45.981108,1.809745 c 5.835,1.798855 11.57386,4.122197 17.17403,6.874721 11.66873,20.61995 20.12869,53.579175 20.13235,94.365648 0,2.64807 -0.1059,5.19807 -0.17522,7.77959 -3.19715,-1.86101 -6.06189,-3.48567 -9.21379,-5.28819 -3.68411,-6.53616 -7.28856,-12.71004 -10.59271,-18.07405 -14.53931,-23.602981 -32.0763,-48.08105 -48.70137,-66.737585 10.22975,-8.202818 20.8548,-14.587226 31.37696,-18.920133 z m -60.723114,3.513775 c 2.491264,1.933271 5.159673,4.213352 8.022878,6.886454 -3.409916,7.293191 -6.361051,15.559908 -8.850262,24.537394 -2.131967,2.432969 -4.223628,4.937419 -6.267858,7.509317 C 71.612871,66.3085 70.332997,62.947915 69.214095,59.721805 66.186324,51.000216 64.55736,44.397878 63.685819,39.215212 68.851525,36.001799 74.36337,33.252103 80.070076,30.812816 Z M 172.634,42.634944 c 15.49359,10.394391 29.2111,24.384024 39.48764,41.07197 1.773,2.878997 3.35773,5.799812 4.87637,8.731457 -1.99744,17.698659 -7.99804,37.111149 -17.97626,56.454919 -3.83518,-2.34079 -7.62159,-4.6397 -11.54543,-6.96876 0.20282,-4.39338 0.31322,-8.85654 0.31322,-13.38512 0,-33.478659 -5.73289,-63.437588 -15.15573,-85.904466 z m -77.320456,2.36209 c 0.157248,0.163057 0.306153,0.305656 0.464043,0.469916 -0.35429,0.315884 -0.700108,0.655534 -1.052987,0.975389 0.198326,-0.477135 0.388308,-0.976713 0.589201,-1.445425 z m -40.390185,0.235259 c 1.145603,5.121714 2.80621,10.875919 5.039331,17.310147 1.642187,4.733147 3.614595,9.746558 5.753943,14.901124 C 55.462047,72.714629 46.145434,68.715236 37.899777,65.46861 c 2.564112,-4.907937 5.629301,-9.434886 9.06335,-13.631873 2.545431,-2.305292 5.19542,-4.517804 7.960232,-6.604444 z m 47.247241,7.168523 c 14.2831,16.040293 30.84026,38.037197 47.52297,65.115804 0.90499,1.46901 1.70772,2.86612 2.58241,4.31287 -4.60899,-2.55842 -9.84625,-5.58532 -13.96482,-7.81485 -17.62421,-9.53651 -36.53984,-19.267668 -54.417702,-27.957127 1.114795,-6.801436 2.465206,-13.232595 4.049051,-19.249194 4.585812,-5.162569 9.335806,-9.999446 14.228091,-14.407503 z m 124.58022,16.099739 c 12.62653,17.249016 19.98479,38.015235 19.93184,60.321165 -0.0321,13.32802 -2.83843,26.03932 -7.70947,37.82853 4.16387,-23.97235 0.35942,-50.71154 -12.17225,-75.974331 0.67559,-7.725563 0.69856,-15.170138 -0.0513,-22.175364 z m -207.905378,0.02407 c 0.396651,0.116728 0.970832,0.327919 1.391489,0.458484 -0.09178,0.141395 -0.184848,0.281588 -0.275988,0.422983 -0.327975,-0.271359 -0.81307,-0.624006 -1.115693,-0.881407 z m 15.180825,5.452822 c 7.642723,3.028756 16.77667,6.960581 27.378037,11.845592 -0.958316,1.472622 -1.944104,2.913895 -2.87065,4.418647 -0.85004,1.380264 -1.593793,2.782428 -2.406863,4.171836 C 46.681428,88.47526 38.799302,83.245001 32.409176,78.76035 c 0.523734,-1.606316 1.011589,-3.229479 1.617091,-4.782906 z m -4.224526,14.572003 c 2.287932,1.573705 4.421055,3.064497 7.107756,4.841691 4.46592,2.954268 9.464686,6.121893 14.566528,9.319063 -7.924932,15.06093 -13.657568,30.45075 -16.985971,45.45529 -6.60899,-18.64419 -8.624786,-37.95349 -5.453053,-56.255097 0.198967,-1.149939 0.527584,-2.231466 0.76474,-3.360947 z m 40.440309,1.433693 c 0.46661,0.22142 0.9329,0.433814 1.404004,0.658122 0.463401,1.001804 0.913067,1.996568 1.391424,3.008419 -0.435161,3.425928 -0.846447,6.89049 -1.153241,10.43543 -2.634072,-1.58472 -5.017508,-3.05752 -7.48387,-4.571357 0.899654,-1.549818 1.734675,-3.114678 2.682659,-4.653665 1.021922,-1.659805 2.0984,-3.258841 3.159024,-4.876949 z m -50.732185,0.822622 c -4.193206,24.633609 0.14056,50.895249 12.147151,75.222229 -0.383173,4.1432 -0.630277,8.24656 -0.601395,12.25696 0.02568,3.41877 0.227208,6.72081 0.551332,9.93014 -12.46261,-17.17332 -19.723572,-37.78726 -19.668631,-59.93332 0.03209,-13.19445 2.790549,-25.78486 7.571607,-37.476009 z m 65.825208,6.475143 c 14.601959,7.197526 30.642577,15.437406 47.999337,24.831266 10.13694,5.48705 19.42095,10.69426 28.29323,15.74715 4.18659,7.46377 7.92775,14.55226 11.26964,21.27048 -14.42078,-7.11948 -30.22206,-15.23289 -47.30995,-24.47867 -10.42243,-5.63946 -19.96085,-10.99 -29.045323,-16.17025 -4.024404,-7.2027 -7.778598,-14.30179 -11.206934,-21.199975 z M 59.799729,107.84563 c 3.686737,2.2553 7.447927,4.53062 11.369958,6.86299 -0.216938,4.54037 -0.351081,9.14614 -0.351081,13.83163 0,33.47854 5.731544,63.451 15.15573,85.91626 -15.49359,-10.39655 -29.211106,-24.40484 -39.487576,-41.09549 -1.721838,-2.79519 -3.283539,-5.63424 -4.77618,-8.49644 1.983962,-18.37567 8.178584,-37.92397 18.089084,-57.01895 z m 164.243401,0.96366 c 7.15486,20.21815 8.64166,40.74881 4.83875,59.27525 -6.48088,-4.47316 -13.74845,-9.19757 -21.53635,-14.06671 7.92634,-15.19673 13.49319,-30.51632 16.6976,-45.20854 z M 80.696823,120.30236 c 2.876619,1.67568 5.819346,3.36594 8.787555,5.06497 3.51755,6.21924 7.13805,12.47868 11.018942,18.7791 14.53617,23.60388 32.06622,48.07954 48.68886,66.73758 -10.22231,8.19277 -20.83927,14.57971 -31.35193,18.9084 -5.83784,-1.79849 -11.5835,-4.10962 -17.18648,-6.86298 -11.676888,-20.61707 -20.144939,-53.59392 -20.144939,-94.38918 0,-2.80451 0.109753,-5.50805 0.188056,-8.23789 z m 25.397417,14.43103 c 4.81173,2.67135 9.55191,5.3341 14.50389,8.01461 17.55174,9.49583 36.39453,19.17753 54.20455,27.83967 -1.13123,6.98531 -2.52476,13.58061 -4.1493,19.74276 -4.57998,5.15131 -9.31842,9.98458 -14.20301,14.38398 -14.28258,-16.04175 -30.83544,-38.05231 -47.51052,-65.13933 -1.00202,-1.62623 -1.86708,-3.2189 -2.84561,-4.84169 z m 71.30335,12.24522 c 0.0129,0.006 0.0257,0.0181 0.0386,0.0241 -0.001,0.0181 10e-4,0.0301 0,0.0482 -0.0128,-0.0241 -0.0257,-0.0482 -0.0386,-0.0704 z m 9.35167,5.54675 c 2.70685,1.6275 5.17899,3.13592 7.70947,4.68892 -0.9684,1.6781 -1.86695,3.35842 -2.89575,5.02972 -0.94586,1.53508 -1.94185,3.01312 -2.92083,4.51263 -0.63542,-0.30084 -1.2621,-0.59807 -1.9054,-0.90487 -0.37035,-0.78971 -0.77726,-1.56119 -1.15332,-2.35036 0.45827,-3.59674 0.84966,-7.24837 1.16583,-10.97604 z m 15.97053,9.77736 c 9.37233,5.89097 17.23603,11.10757 23.60484,15.57092 -0.51988,1.61829 -0.99797,3.25524 -1.60456,4.82996 -7.6179,-3.02634 -16.71263,-6.92832 -27.25276,-11.78692 0.8768,-1.35307 1.78249,-2.67419 2.63253,-4.05428 0.93162,-1.51359 1.73628,-3.03964 2.61995,-4.55968 z m -10.05363,16.75786 c 10.40208,4.80692 19.86305,8.89007 28.21794,12.18645 -2.61122,5.05908 -5.7637,9.77123 -9.35165,14.14896 -2.49859,2.25818 -5.08856,4.4278 -7.79722,6.47514 -2.1457,-9.77711 -6.09957,-21.06965 -11.06907,-32.81055 z m -151.50704,3.38448 c 13.568994,20.24925 31.952232,36.55747 52.44953,47.19458 0.406279,0.6719 0.813712,1.33719 1.228527,1.98604 C 75.482723,226.14584 58.302788,216.16373 44.631486,203.0457 42.650797,196.89805 41.528493,189.96226 41.15912,182.44506 Z m 197.75136,4.86515 c 0.34466,0.2852 0.84889,0.65855 1.16582,0.9284 -0.41847,-0.12334 -1.02121,-0.35499 -1.46665,-0.49337 0.095,-0.14802 0.20668,-0.28641 0.30103,-0.43503 z m -53.37717,0.19976 c 4.86443,12.41606 8.03956,22.83565 9.4143,30.40147 -5.16609,3.21612 -10.67967,5.96371 -16.38419,8.4024 -2.49814,-1.93755 -5.17605,-4.2284 -8.04798,-6.90992 3.40498,-7.27875 6.35008,-15.53278 8.83775,-24.49047 2.10296,-2.398 4.16227,-4.87027 6.18012,-7.40348 z m -21.66177,23.17422 c -0.19512,0.46932 -0.37868,0.96107 -0.57701,1.42196 -0.15275,-0.15884 -0.29781,-0.29783 -0.4512,-0.45848 0.34787,-0.31047 0.68137,-0.64963 1.02795,-0.9636 z m -8.31119,7.12148 c 1.14908,1.19969 2.276,2.28886 3.40973,3.41973 -2.79518,5.18711 -5.80472,9.55726 -8.92548,13.22061 -0.69518,0.0181 -1.38104,0.0602 -2.08095,0.0602 -5.19889,0 -10.41325,-0.46752 -15.607,-1.30439 7.84952,-4.17906 15.64057,-9.35011 23.2037,-15.39469 z m -96.036415,8.28488 c 5.394069,3.28063 11.098656,6.1444 17.023583,8.64921 -3.615558,-0.8926 -7.030993,-2.18755 -10.216653,-3.9133 -2.455514,-1.32894 -4.686645,-2.96251 -6.80693,-4.73591 z m 106.541315,1.84506 c 0.82879,0.73544 1.65438,1.46288 2.46957,2.15054 -1.59225,0.52167 -3.15337,1.10373 -4.77612,1.56294 0.77605,-1.21306 1.56081,-2.42015 2.30655,-3.71348 z m 29.15815,3.29044 c -0.34722,0.96444 -0.78835,1.73447 -1.404,2.06828 -0.26314,0.13238 -0.62835,0.19976 -1.0906,0.19976 -0.39408,0 -0.87686,-0.14019 -1.31626,-0.21119 0.61038,-0.31227 1.23854,-0.58965 1.84276,-0.91666 0.67174,-0.36342 1.31004,-0.76167 1.9681,-1.13989 z m -72.03036,14.06671 c 1.93172,0.0849 3.87595,0.14861 5.8291,0.15282 l 0.31322,0 c 2.02702,0 4.03794,-0.0542 6.04219,-0.14079 -2.02497,0.6796 -4.04982,1.15168 -6.06728,1.15168 -2.03108,0 -4.07884,-0.47473 -6.11742,-1.16341 z"
   inkscape:connector-curvature="0" />





</svg>